<svg width="21" height="21" viewBox="0 0 21 21" fill="none" xmlns="http://www.w3.org/2000/svg">
<path d="M0 2.5625C0 1.14727 1.14727 0 2.5625 0H13.3819C14.7971 0 15.9444 1.14727 15.9444 2.5625V12.5278H20.5V16.7986C20.5 18.8428 18.8428 20.5 16.7986 20.5H3.70139C1.65716 20.5 0 18.8428 0 16.7986V2.5625ZM15.9444 18.7917H16.7986C17.8993 18.7917 18.7917 17.8993 18.7917 16.7986V14.2361H15.9444V18.7917ZM3.98611 5.40972C3.98611 5.88146 4.36854 6.26389 4.84028 6.26389H11.1042C11.5759 6.26389 11.9583 5.88146 11.9583 5.40972C11.9583 4.93798 11.5759 4.55556 11.1042 4.55556H4.84028C4.36854 4.55556 3.98611 4.93798 3.98611 5.40972ZM4.84028 9.11111C4.36854 9.11111 3.98611 9.49355 3.98611 9.96528C3.98611 10.437 4.36854 10.8194 4.84028 10.8194H11.1042C11.5759 10.8194 11.9583 10.437 11.9583 9.96528C11.9583 9.49355 11.5759 9.11111 11.1042 9.11111H4.84028ZM3.98611 14.5208C3.98611 14.9926 4.36854 15.375 4.84028 15.375H8.25694C8.72867 15.375 9.11111 14.9926 9.11111 14.5208C9.11111 14.0491 8.72867 13.6667 8.25694 13.6667H4.84028C4.36854 13.6667 3.98611 14.0491 3.98611 14.5208Z" fill="#DD8B0D"/>
</svg>
