<svg width="26" height="26" viewBox="0 0 26 26" fill="none" xmlns="http://www.w3.org/2000/svg">
<path d="M13 26C5.83187 26 0 20.1681 0 13C0 5.83187 5.83187 0 13 0C20.1681 0 26 5.83187 26 13C26 20.1681 20.1681 26 13 26Z" fill="#DD8B0D"/>
<path d="M9.34367 21.6667C10.0916 21.6667 10.6978 21.0604 10.6978 20.3125C10.6978 19.5646 10.0916 18.9583 9.34367 18.9583C8.59578 18.9583 7.9895 19.5646 7.9895 20.3125C7.9895 21.0604 8.59578 21.6667 9.34367 21.6667Z" fill="white"/>
<path d="M18.8229 21.6667C19.5708 21.6667 20.1771 21.0604 20.1771 20.3125C20.1771 19.5646 19.5708 18.9583 18.8229 18.9583C18.075 18.9583 17.4688 19.5646 17.4688 20.3125C17.4688 21.0604 18.075 21.6667 18.8229 21.6667Z" fill="white"/>
<path d="M21.2266 7.81947C21.1314 7.70312 21.0116 7.60941 20.8757 7.54514C20.7399 7.48087 20.5914 7.44766 20.4411 7.44792H7.56175L7.30234 5.97611C7.27468 5.81934 7.19267 5.67732 7.0707 5.57501C6.94873 5.4727 6.79461 5.41664 6.63542 5.41667H3.92708C3.74751 5.41667 3.57529 5.48801 3.44831 5.61499C3.32134 5.74196 3.25 5.91418 3.25 6.09376C3.25 6.27333 3.32134 6.44555 3.44831 6.57253C3.57529 6.6995 3.74751 6.77084 3.92708 6.77084H6.06751L7.99974 17.7218C8.0274 17.8786 8.10942 18.0206 8.23138 18.1229C8.35335 18.2252 8.50747 18.2813 8.66667 18.2813H19.5C19.6796 18.2813 19.8518 18.2099 19.9788 18.0829C20.1057 17.956 20.1771 17.7837 20.1771 17.6042C20.1771 17.4246 20.1057 17.2524 19.9788 17.1254C19.8518 16.9984 19.6796 16.9271 19.5 16.9271H9.23457L8.9959 15.5729H19.2224C19.4572 15.5726 19.6847 15.4912 19.8664 15.3425C20.0481 15.1937 20.1728 14.9867 20.2194 14.7566L21.4382 8.66286C21.4675 8.51539 21.4638 8.36323 21.4272 8.21738C21.3906 8.07153 21.3221 7.93562 21.2266 7.81947Z" fill="white"/>
</svg>
