<svg width="24" height="19" viewBox="0 0 24 19" fill="none" xmlns="http://www.w3.org/2000/svg">
<path d="M6.85714 3V8.57143H15.0734L12.2513 5.74875C12.0973 5.5867 12.0127 5.37091 12.0156 5.1474C12.0184 4.92389 12.1085 4.71034 12.2666 4.55228C12.4246 4.39422 12.6382 4.30416 12.8617 4.3013C13.0852 4.29844 13.301 4.383 13.463 4.53696L17.7488 8.82268C17.9094 8.98341 17.9996 9.20134 17.9996 9.42857C17.9996 9.6558 17.9094 9.87374 17.7488 10.0345L13.463 14.3202C13.301 14.4741 13.0852 14.5587 12.8617 14.5558C12.6382 14.553 12.4246 14.4629 12.2666 14.3049C12.1085 14.1468 12.0184 13.9333 12.0156 13.7097C12.0127 13.4862 12.0973 13.2704 12.2513 13.1084L15.0734 10.2857H6.85714V15.8571C6.85799 16.6525 7.17434 17.4151 7.73676 17.9775C8.29919 18.5399 9.06175 18.8563 9.85714 18.8571H21C21.7954 18.8563 22.558 18.5399 23.1204 17.9775C23.6828 17.4151 23.9991 16.6525 24 15.8571V3C23.9991 2.20461 23.6828 1.44204 23.1204 0.879619C22.558 0.317195 21.7954 0.000850835 21 0H9.85714C9.06175 0.000850835 8.29919 0.317195 7.73676 0.879619C7.17434 1.44204 6.85799 2.20461 6.85714 3ZM0.857143 8.57143C0.629814 8.57143 0.411797 8.66173 0.251051 8.82248C0.0903058 8.98323 0 9.20124 0 9.42857C0 9.6559 0.0903058 9.87392 0.251051 10.0347C0.411797 10.1954 0.629814 10.2857 0.857143 10.2857H6.85714V8.57143H0.857143Z" fill="#DD8B0D"/>
</svg>
